<svg width="525" height="177" viewBox="0 0 525 177" fill="none" xmlns="http://www.w3.org/2000/svg">
<mask id="mask0_103_40" style="mask-type:alpha" maskUnits="userSpaceOnUse" x="0" y="0" width="525" height="177">
<mask id="path-1-inside-1_103_40" fill="white">
<path d="M0 12C0 5.37258 5.37258 0 12 0H513C519.627 0 525 5.37258 525 12V165C525 171.627 519.627 177 513 177H12C5.37258 177 0 171.627 0 165V12Z"/>
</mask>
<path d="M0 12C0 5.37258 5.37258 0 12 0H513C519.627 0 525 5.37258 525 12V165C525 171.627 519.627 177 513 177H12C5.37258 177 0 171.627 0 165V12Z" fill="white"/>
<path d="M-1 12C-1 4.8203 4.8203 -1 12 -1H512C519.18 -1 525 4.8203 525 12C525 5.92487 519.627 1 513 1H12C5.92487 1 1 5.92487 1 12H-1ZM1 12M525 177H0H525M12 177C4.8203 177 -1 171.18 -1 164V12C-1 4.8203 4.8203 -1 12 -1V1C5.92487 1 1 5.92487 1 12V165C1 171.627 5.92487 177 12 177ZM12 177M525 0V177V0" fill="#D4D4D4" mask="url(#path-1-inside-1_103_40)"/>
</mask>
<g mask="url(#mask0_103_40)">
<circle cx="33.5" cy="22.5" r="59.5" fill="#CD425A"/>
</g>
<circle cx="88" cy="51" r="28" fill="#EB5B74"/>
</svg>
